{"title":"Dead.Space.Downfall.2008.720p.BRRip.x264.Feel-Free","uid":6144598,"size":1543424103,"categoryP":"video","categoryS":"hd___movies","magnet":"?xt=urn:btih:834c4adba6c9e65ca4606c0c0577433e5ed01ec2&amp;dn=Dead.Space.Downfall.2008.720p.BRRip.x264.Feel-Free&amp;tr=udp%3A%2F%2Ftracker.openbittorrent.com%3A80&amp;tr=udp%3A%2F%2Fopen.demonii.com%3A1337&amp;tr=udp%3A%2F%2Ftracker.coppersurfer.tk%3A6969&amp;tr=udp%3A%2F%2Fexodus.desync.com%3A6969","seeders":0,"leechers":1,"uploader":".BONE.","files":10,"time":1296629978,"description":"Genre:Animation | Horror | Sci-Fi\nLanguage:English\n &lt;a href=&quot;\nhttp://www.imdb.com/title/tt1267379/&quot; rel=&quot;nofollow&quot; target=&quot;_NEW&quot;&gt;\nhttp://www.imdb.com/title/tt1267379/&lt;/a&gt;\n\nSource:1080p.BluRay\nSubtitles:Romana\n\n\nFormat : MPEG-4\nFormat profile : Base Media\nCodec ID : isom\nFile size : 1.43 GiB\nDuration : 1h 14mn\nOverall bit rate : 2 760 Kbps\n\n\nVideo\nFormat settings, CABAC : Yes\nFormat settings, ReFrames : 3 frames\nFormat settings, GOP : N=1\nCodec ID : avc1\nCodec ID/Info : Advanced Video Coding\nDuration : 1h 14mn\nBit rate mode : Variable\nBit rate : 2 365 Kbps\nMaximum bit rate : 16.2 Mbps\nWidth : 1 280 pixels\nHeight : 720 pixels\nDisplay aspect ratio : 16:9\nFrame rate mode : Constant\nFrame rate : 23.976 fps\nColor space : YUV\nChroma subsampling : 4:2:0\nBit depth : 8 bits\nScan type : Progressive\nBits/(Pixel*Frame) : 0.107\nStream size : 1.20 GiB (84%)\nWriting library : x264\n\n\nAudio\nID : 2\nFormat : AAC\nFormat/Info : Advanced Audio Codec\nFormat version : Version 4\nFormat profile : LC\nFormat settings, SBR : No\nCodec ID : 40\nDuration : 1h 14mn\nBit rate mode : Variable\nBit rate : 445 Kbps\nMaximum bit rate : 607 Kbps\nChannel(s) : 6 channels\nChannel positions : Front: L C R, Side: L R, LFE\nSampling rate : 48.0 KHz\nStream size : 237 MiB (16%)\n &lt;a href=&quot;\nhttp://rapidhdd.com/images/631587vlcsnap-00001.png&quot; rel=&quot;nofollow&quot; target=&quot;_NEW&quot;&gt;\nhttp://rapidhdd.com/images/631587vlcsnap-00001.png&lt;/a&gt;\n &lt;a href=&quot;\nhttp://www.rapidhdd.com/images/931758vlcsnap-00002.png&quot; rel=&quot;nofollow&quot; target=&quot;_NEW&quot;&gt;\nhttp://www.rapidhdd.com/images/931758vlcsnap-00002.png&lt;/a&gt;\n &lt;a href=&quot;\nhttp://www.rapidhdd.com/images/889728vlcsnap-00003.png&quot; rel=&quot;nofollow&quot; target=&quot;_NEW&quot;&gt;\nhttp://www.rapidhdd.com/images/889728vlcsnap-00003.png&lt;/a&gt;\n &lt;a href=&quot;\nhttp://www.rapidhdd.com/images/704650vlcsnap-00005.png&quot; rel=&quot;nofollow&quot; target=&quot;_NEW&quot;&gt;\nhttp://www.rapidhdd.com/images/704650vlcsnap-00005.png&lt;/a&gt;\n &lt;a href=&quot;\nhttp://www.rapidhdd.com/images/689481vlcsnap-00004.png&quot; rel=&quot;nofollow&quot; target=&quot;_NEW&quot;&gt;\nhttp://www.rapidhdd.com/images/689481vlcsnap-00004.png&lt;/a&gt;","torrent":{"xt":"urn:btih:834c4adba6c9e65ca4606c0c0577433e5ed01ec2","amp;dn":"Dead.Space.Downfall.2008.720p.BRRip.x264.Feel-Free","amp;tr":["udp%3A%2F%2Ftracker.openbittorrent.com%3A80","udp%3A%2F%2Fopen.demonii.com%3A1337","udp%3A%2F%2Ftracker.coppersurfer.tk%3A6969","udp%3A%2F%2Fexodus.desync.com%3A6969"],"infoHash":"834c4adba6c9e65ca4606c0c0577433e5ed01ec2","infoHashBuffer":{"type":"Buffer","data":[131,76,74,219,166,201,230,92,164,96,108,12,5,119,67,62,94,208,30,194]},"announce":[],"urlList":[]}}